# AST/ASF file generated using VICON BodyLanguage
# -----------------------------------------------
:version 1.10
:name VICON
:units
  mass 1.0
  length 0.45
  angle deg
:documentation
   .ast/.asf automatically generated from VICON data using
   VICON BodyBuilder and BodyLanguage model FoxedUp or BRILLIANT.MOD
:root
   order TX TY TZ RX RY RZ
   axis XYZ
   position 0 0 0  
   orientation 0 0 0 
:bonedata
  begin
     id 1 
     name lhipjoint
     direction 0.612567 -0.751349 0.245431 
     length 2.42285 
     axis 0 0 0  XYZ
  end
  begin
     id 2 
     name lfemur
     direction 0.34202 -0.939693 0  
     length 7.11304  
     axis 0 0 20  XYZ
    dof rx ry rz
    limits (-160.0 20.0)
           (-70.0 70.0)
           (-60.0 70.0)
  end
  begin
     id 3 
     name ltibia
     direction 0.34202 -0.939693 0   
     length 7.84529   
     axis 0 0 20   XYZ
    dof rx
    limits (-10.0 170.0)
  end
  begin
     id 4 
     name lfoot
     direction 0.0779239 -0.214094 0.9737   
     length 1.97176   
     axis -90 7.62852e-016 20   XYZ
    dof rx rz
    limits (-45.0 90.0)
           (-70.0 20.0)
  end
  begin
     id 5 
     name ltoes
     direction 1.53565e-011 -4.21709e-011 1   
     length 0.993197   
     axis -90 7.62852e-016 20   XYZ
    dof rx
    limits (-90.0 20.0)
  end
  begin
     id 6 
     name rhipjoint
     direction -0.665722 -0.709315 0.231701   
     length 2.56642  
     axis 0 0 0  XYZ 
  end
  begin
     id 7 
     name rfemur
     direction -0.34202 -0.939693 0   
     length 7.32108   
     axis 0 0 -20   XYZ
    dof rx ry rz
    limits (-160.0 20.0)
           (-70.0 70.0)
           (-70.0 60.0)
  end
  begin
     id 8 
     name rtibia
     direction -0.34202 -0.939693 0   
     length 7.81254   
     axis 0 0 -20   XYZ
    dof rx
    limits (-10.0 170.0)
 end
 begin
     id 9 
     name rfoot
     direction -0.0832806 -0.228812 0.969902   
     length 2.08278  
     axis -90 -7.62852e-016 -20   XYZ
    dof rx rz
    limits (-45.0 90.0)
           (-20.0 70.0)
  end
  begin
     id 10 
     name rtoes
     direction -1.53589e-011 -4.22086e-011 1   
     length 1.04609   
     axis -90 -7.62852e-016 -20   XYZ
    dof rx
    limits (-90.0 20.0)
  end
  begin
     id 11 
     name lowerback
     direction -0.00506013 0.988403 -0.151766   
     length 2.01978   
     axis 0 0 0   XYZ
    dof rx ry rz
    limits (-20.0 45.0)
           (-30.0 30.0)
           (-30.0 30.0)
  end
  begin
     id 12 
     name upperback
     direction -0.00836389 0.99968 0.0238859   
     length 2.01276   
     axis 0 0 0   XYZ
    dof rx ry rz
    limits (-20.0 45.0)
           (-30.0 30.0)
           (-30.0 30.0)
  end
  begin
     id 13 
     name thorax
     direction -0.00684136 0.995386 0.0957043   
     length 2.07303   
     axis 0 0 0   XYZ
    dof rx ry rz
    limits (-20.0 45.0)
           (-30.0 30.0)
           (-30.0 30.0)
  end
  begin
     id 14 
     name lowerneck
     direction -0.0161045 0.999661 0.0204485   
     length 1.91243   
     axis 0 0 0   XYZ
    dof rx ry rz
    limits (-20.0 45.0)
           (-30.0 30.0)
           (-30.0 30.0)
  end
  begin
     id 15 
     name upperneck
     direction 0.0553583 0.990946 -0.122319   
     length 1.91574   
     axis 0 0 0   XYZ
    dof rx ry rz
    limits (-20.0 45.0)
           (-30.0 30.0)
           (-30.0 30.0)
  end
  begin
     id 16
     name head
     direction 0.0180273 0.998839 -0.0446756  
     length 1.92693  
     axis 0 0 0   XYZ
    dof rx ry rz
    limits (-20.0 45.0)
           (-30.0 30.0)
           (-30.0 30.0)
  end
  begin
     id 17 
     name lclavicle
     direction 0.945646 0.319323 -0.0615358  
     length 4.0076  
     axis 0 0 0   XYZ
    dof ry rz
    limits (-20.0 10.0)
           (0.0 20.0)
  end
  begin
     id 18 
     name lhumerus
     direction 1 -4.48967e-011 -2.79996e-027   
     length 5.64147   
     axis 180 -30 -90   XYZ
    dof rx ry rz
    limits (-60.0 90.0)
           (-90.0 90.0)
           (-90.0 90.0)
  end
  begin
     id 19
     name lradius
     direction 1 -4.48976e-011 -9.5122e-027   
     length 2.86444   
     axis 180 -30 -90   XYZ
    dof rx
    limits (-10.0 170.0)
  end
  begin
     id 20
     name lwrist
     direction 1 -4.48983e-011 -1.24047e-026   
     length 1.43222   
     axis 9.05591e-015 90 90   XYZ
    dof ry
    limits (-180.0 0.0)
 end
  begin
     id 21 
     name lhand
     direction 1 -4.4892e-011 -2.48094e-026   
     length 0.722123   
     axis 1.58305e-014 90 90   XYZ
    dof rx rz
    limits (-90.0 90.0)
           (-45.0 45.0)
  end
  begin
     id 22 
     name lfingers
     direction 1 -4.48895e-011 -4.96187e-026   
     length 0.582194   
     axis 3.1661e-014 90 90   XYZ
    dof rx
    limits (0.0 90.0)
  end
  begin
     id 23
     name lthumb
     direction 0.707107 -6.34961e-011 0.707107   
     length 0.835918   
     axis -90 45 2.85299e-015   XYZ
    dof rx rz
    limits (-45.0 45.0)
           (-45.0 45.0)
  end
  begin
     id 24 
     name rclavicle
     direction -0.932635 0.324218 -0.15835   
     length 3.65819  
     axis 0 0 0   XYZ 
    dof ry rz
    limits (-10.0 20.0)
           (-20.0 0.0)
  end
  begin
     id 25 
     name rhumerus
     direction -1 -4.48965e-011 -4.02296e-027  
     length 5.44729   
     axis 180 30 90   XYZ
    dof rx ry rz
    limits (-90.0 60.0)
           (-90.0 90.0)
           (-90.0 90.0)
  end
  begin
     id 26 
     name rradius
     direction -1 -4.48957e-011 -8.81087e-027   
     length 3.08821   
     axis 180 30 90   XYZ
    dof rx
    limits (-10.0 170.0)
  end
  begin
     id 27 
     name rwrist
     direction -1 -4.49015e-011 -1.24047e-026   
     length 1.5441   
     axis 9.05591e-015 -90 -90   XYZ
    dof ry
    limits (-180.0 0.0)
  end
  begin
     id 28
     name rhand
     direction -1 -4.4891e-011 -2.48094e-026   
     length 0.821049   
     axis 1.58305e-014 -90 -90   XYZ
    dof rx rz
    limits (-90.0 90.0)
           (-45.0 45.0)
  end
  begin
     id 29
     name rfingers
     direction -1 -4.48985e-011 -4.96187e-026   
     length 0.661951   
     axis 3.1661e-014 -90 -90   XYZ
    dof rx
    limits (0.0 90.0)
  end
  begin
     id 30
     name rthumb
     direction -0.707107 -6.34906e-011 0.707107   
     length 0.950433   
     axis -90 -45 -2.85299e-015   XYZ
    dof rx rz
    limits (-45.0 45.0)
           (-45.0 45.0)
  end
:hierarchy
  begin
    root lhipjoint rhipjoint lowerback
    lhipjoint lfemur
    lfemur ltibia
    ltibia lfoot
    lfoot ltoes
    rhipjoint rfemur
    rfemur rtibia
    rtibia rfoot
    rfoot rtoes
    lowerback upperback
    upperback thorax
    thorax lowerneck lclavicle rclavicle
    lowerneck upperneck
    upperneck head
    lclavicle lhumerus
    lhumerus lradius
    lradius lwrist
    lwrist lhand lthumb
    lhand lfingers
    rclavicle rhumerus
    rhumerus rradius
    rradius rwrist
    rwrist rhand rthumb
    rhand rfingers
  end

#!OML:ASF F:\VICON\USERDATA\INSTALL\rory3\rory3.ASF
:FULLY-SPECIFIED
:DEGREES
1756
root 0.693453 17.7326 -0.0559496 -39.0311 87.9405 -72.7012
lowerback 35.8276 -1.7235 2.43524
upperback 22.683 1.73403 1.46333
thorax 7.07447 1.99809 -0.0309019
lowerneck 27.7603 -2.27854 -6.71158
upperneck -3.23708 -4.02126 7.94088
head -4.95777 -2.37629 4.10359
rclavicle 1.47101e-014 1.97791e-014
rhumerus 34.725 16.9326 -87.4374
rradius 129.091
rwrist 25.2851
rhand 28.85 -0.569954
rfingers 7.12502
rthumb 52.6701 -20.269
lclavicle 1.47101e-014 1.97791e-014
lhumerus 41.6582 -26.1892 82.886
lradius 125.094
lwrist 19.6787
lhand -17.1601 26.3277
lfingers 7.12502
lthumb 9.08084 56.1122
rfemur -50.2785 1.76627 20.0953
rtibia 19.3913
rfoot -7.17372 -8.09993
rtoes -12.782
lfemur -52.3251 3.9446 -19.108
ltibia 24.359
lfoot -7.08026 3.07537
ltoes -15.5802
1757
root 0.689113 17.7321 -0.0491242 -37.7761 87.9698 -71.4047
lowerback 35.8268 -1.68698 2.32743
upperback 22.726 1.75804 1.47379
thorax 7.12189 2.00007 0.0322817
lowerneck 27.6305 -2.2306 -6.78044
upperneck -3.0305 -3.9649 8.07414
head -4.87537 -2.35679 4.14484
rclavicle -3.29983e-014 -1.5704e-014
rhumerus 34.7816 16.9628 -87.4158
rradius 129.086
rwrist 25.2513
rhand 28.914 -0.539699
rfingers 7.12502
rthumb 52.728 -20.2028
lclavicle -3.29983e-014 -1.5704e-014
lhumerus 41.8332 -26.1362 82.8335
lradius 125.211
lwrist 19.7106
lhand -17.0916 26.6797
lfingers 7.12502
lthumb 9.14698 56.4614
rfemur -50.2798 1.81266 20.0344
rtibia 19.4394
rfoot -7.20445 -8.08066
rtoes -12.5208
lfemur -52.279 3.97566 -19.1497
ltibia 24.33
lfoot -7.03314 3.06614
ltoes -15.3812
1758
root 0.686031 17.7303 -0.0455505 -39.311 88.0359 -72.9293
lowerback 35.7621 -1.72645 2.36108
upperback 22.7704 1.72683 1.48917
thorax 7.19458 1.99068 0.0423653
lowerneck 27.4259 -2.16576 -6.93143
upperneck -2.70029 -3.89972 8.32417
head -4.74144 -2.33946 4.23228
rclavicle 7.95139e-016 8.15017e-015
rhumerus 34.8422 17.0085 -87.3947
rradius 129.054
rwrist 25.2253
rhand 28.9117 -0.420232
rfingers 7.12502
rthumb 52.7259 -20.0846
lclavicle 7.95139e-016 8.15017e-015
lhumerus 41.9506 -26.1091 82.787
lradius 125.275
lwrist 19.7155
lhand -17.059 26.9835
lfingers 7.12502
lthumb 9.17844 56.7638
rfemur -50.2794 1.68439 20.0827
rtibia 19.4546
rfoot -7.20274 -8.01274
rtoes -12.383
lfemur -52.2868 3.95171 -19.1831
ltibia 24.3196
lfoot -6.96096 3.00927
ltoes -15.4235
1759
root 0.683293 17.7295 -0.0452891 -42.0299 88.0954 -75.6482
lowerback 35.6416 -1.80491 2.47135
upperback 22.8302 1.66799 1.49766
thorax 7.30555 1.97771 0.0138544
lowerneck 27.4404 -2.13756 -7.00123
upperneck -2.68394 -3.87233 8.46328
head -4.73785 -2.33689 4.28658
rclavicle 6.08281e-014 8.05078e-015
rhumerus 34.9723 17.1036 -87.2822
rradius 128.989
rwrist 25.0626
rhand 28.9446 -0.538004
rfingers 7.12502
rthumb 52.7556 -20.1839
lclavicle 6.08281e-014 8.05078e-015
lhumerus 41.9874 -26.0749 82.7854
lradius 125.304
lwrist 19.7515
lhand -16.9391 27.0549
lfingers 7.12502
lthumb 9.29407 56.83
rfemur -50.278 1.4836 20.2015
rtibia 19.4379
rfoot -7.0625 -7.95546
rtoes -12.645
lfemur -52.2994 3.84201 -19.1469
ltibia 24.3142
lfoot -6.9696 3.0161
ltoes -15.3574
1760
root 0.681014 17.7312 -0.0406444 -43.2852 88.0574 -76.8315
lowerback 35.6185 -1.80795 2.5182
upperback 22.8906 1.68786 1.52268
thorax 7.38416 1.99489 0.0145261
lowerneck 27.5348 -2.16477 -6.993
upperneck -2.77966 -3.90802 8.45055
head -4.77869 -2.35473 4.2892
rclavicle 4.09496e-014 1.56046e-014
rhumerus 35.0833 17.0485 -87.2326
rradius 129.012
rwrist 25.3175
rhand 29.2677 -0.417595
rfingers 7.12502
rthumb 53.0474 -19.8799
lclavicle 4.09496e-014 1.56046e-014
lhumerus 42.0731 -26.0618 82.7559
lradius 125.307
lwrist 19.7669
lhand -16.8703 27.1479
lfingers 7.12502
lthumb 9.36052 56.9201
rfemur -50.1583 1.52356 20.2606
rtibia 19.3678
rfoot -7.04597 -7.98193
rtoes -12.6581
lfemur -52.2298 3.80913 -19.0305
ltibia 24.3393
lfoot -7.01117 3.08151
ltoes -15.2568
1761
root 0.679911 17.7336 -0.0341633 -41.9249 88.0136 -75.404
lowerback 35.5664 -1.76155 2.47897
upperback 22.9616 1.74153 1.5266
thorax 7.48405 2.02081 0.0301128
lowerneck 27.5832 -2.17095 -7.02883
upperneck -2.82371 -3.92292 8.50472
head -4.79695 -2.36663 4.31654
rclavicle 1.55052e-014 7.65321e-015
rhumerus 35.2 17.0377 -87.1629
rradius 128.885
rwrist 25.2158
rhand 29.3407 -0.289576
rfingers 7.12502
rthumb 53.1132 -19.71
lclavicle 1.55052e-014 7.65321e-015
lhumerus 42.1776 -26.0463 82.7074
lradius 125.253
lwrist 19.7653
lhand -16.8289 27.0702
lfingers 7.12502
lthumb 9.40042 56.8406
rfemur -50.0458 1.58093 20.2886
rtibia 19.2704
rfoot -6.97513 -7.99642
rtoes -12.9349
lfemur -52.1641 3.79599 -18.9426
ltibia 24.385
lfoot -7.08679 3.18282
ltoes -15.1963
1762
root 0.677505 17.735 -0.0266536 -44.4727 87.8934 -77.8966
lowerback 35.5166 -1.74226 2.58283
upperback 23.0238 1.80038 1.59005
thorax 7.57489 2.05943 0.032919
lowerneck 27.6189 -2.21227 -7.03369
upperneck -2.82884 -3.97817 8.50358
head -4.79872 -2.39304 4.32359
rclavicle -2.66371e-014 -1.30204e-014
rhumerus 35.2973 17.0431 -87.0861
rradius 128.741
rwrist 25.1037
rhand 29.3585 -0.221651
rfingers 7.12502
rthumb 53.1293 -19.6318
lclavicle -2.66371e-014 -1.30204e-014
lhumerus 42.2728 -26.0624 82.6712
lradius 125.218
lwrist 19.7357
lhand -16.6802 26.9719
lfingers 7.12502
lthumb 9.54391 56.7357
rfemur -49.9247 1.70401 20.4112
rtibia 19.176
rfoot -7.00106 -8.08765
rtoes -12.4276
lfemur -52.1362 3.84662 -18.7517
ltibia 24.4309
lfoot -7.13766 3.19503
ltoes -15.0346
1763
root 0.673323 17.7353 -0.0172789 -46.298 87.8105 -79.7084
lowerback 35.451 -1.69676 2.64606
upperback 23.0508 1.87193 1.65817
thorax 7.62902 2.09697 0.0572759
lowerneck 27.8512 -2.28227 -6.93809
upperneck -3.04056 -4.05108 8.41798
head -4.8951 -2.42601 4.29845
rclavicle -1.16885e-013 -7.64327e-014
rhumerus 35.3271 16.9991 -87.0318
rradius 128.652
rwrist 25.1396
rhand 29.5052 -0.138331
rfingers 7.12502
rthumb 53.2616 -19.4636
lclavicle -1.16885e-013 -7.64327e-014
lhumerus 42.3326 -26.1505 82.6756
lradius 125.202
lwrist 19.6519
lhand -16.5488 26.8928
lfingers 7.12502
lthumb 9.67073 56.6508
rfemur -49.8766 1.79972 20.5185
rtibia 19.1305
rfoot -7.02477 -8.16913
rtoes -12.2606
lfemur -52.1644 3.97745 -18.6858
ltibia 24.4651
lfoot -7.1165 3.11059
ltoes -15.047
1764
root 0.668153 17.7352 -0.0103335 -45.8792 87.8471 -79.2516
lowerback 35.4159 -1.65941 2.59469
upperback 23.0802 1.90762 1.67982
thorax 7.67352 2.10921 0.100471
lowerneck 28.0674 -2.33504 -6.8033
upperneck -3.28474 -4.09223 8.29846
head -5.00384 -2.4417 4.25312
rclavicle 4.37326e-015 1.22253e-014
rhumerus 35.3421 16.997 -86.9897
rradius 128.609
rwrist 25.2147
rhand 29.5103 -0.135793
rfingers 7.12502
rthumb 53.2661 -19.4582
lclavicle 4.37326e-015 1.22253e-014
lhumerus 42.422 -26.2127 82.6859
lradius 125.195
lwrist 19.6435
lhand -16.5464 26.8861
lfingers 7.12502
lthumb 9.67299 56.644
rfemur -49.8454 1.86519 20.4498
rtibia 19.1144
rfoot -7.03137 -8.24704
rtoes -12.4628
lfemur -52.1509 3.97302 -18.7013
ltibia 24.4956
lfoot -7.12058 3.08737
ltoes -14.8566
1765
root 0.662038 17.7334 -0.00357852 -45.7191 87.9135 -79.0907
lowerback 35.2888 -1.62235 2.56809
upperback 23.1303 1.94667 1.71974
thorax 7.77337 2.12515 0.152262
lowerneck 28.1885 -2.38414 -6.7443
upperneck -3.43472 -4.13901 8.28849
head -5.06628 -2.46646 4.25212
rclavicle 3.97569e-015 -1.72943e-014
rhumerus 35.4081 16.9725 -86.8919
rradius 128.551
rwrist 25.269
rhand 29.4531 -0.194017
rfingers 7.12502
rthumb 53.2146 -19.5495
lclavicle 3.97569e-015 -1.72943e-014
lhumerus 42.4335 -26.2981 82.757
lradius 125.098
lwrist 19.621
lhand -16.593 26.6912
lfingers 7.12502
lthumb 9.62804 56.4512
rfemur -49.8912 1.88526 20.3809
rtibia 19.1444
rfoot -7.03583 -8.34345
rtoes -12.6891
lfemur -52.1789 3.98589 -18.7745
ltibia 24.5011
lfoot -7.11249 3.01349
ltoes -14.8462
1766
root 0.656527 17.7316 -0.000126334 -47.7878 87.9067 -81.213
lowerback 35.0899 -1.64113 2.67266
upperback 23.1694 1.9438 1.75863
thorax 7.88822 2.13375 0.14573
lowerneck 28.2836 -2.39461 -6.72266
upperneck -3.51403 -4.14738 8.28633
head -5.10466 -2.472 4.25328
rclavicle -7.15625e-014 -5.397e-014
rhumerus 35.4724 16.9972 -86.796
rradius 128.473
rwrist 25.3192
rhand 29.3352 -0.235595
rfingers 7.12502
rthumb 53.1083 -19.6592
lclavicle -7.15625e-014 -5.397e-014
lhumerus 42.3109 -26.3475 82.818
lradius 124.936
lwrist 19.568
lhand -16.6104 26.4306
lfingers 7.12502
lthumb 9.61123 56.1914
rfemur -49.9798 1.80304 20.496
rtibia 19.1874
rfoot -7.00153 -8.28582
rtoes -12.7511
lfemur -52.2655 3.94711 -18.703
ltibia 24.4939
lfoot -7.06027 3.04115
ltoes -14.9658
1767
root 0.652156 17.7307 0.00369267 -46.7472 87.9434 -80.1816
lowerback 34.9621 -1.60451 2.65117
upperback 23.1921 1.97592 1.7781
thorax 7.95763 2.14626 0.173514
lowerneck 28.3608 -2.39724 -6.69096
upperneck -3.54571 -4.14109 8.29075
head -5.1266 -2.47067 4.2519
rclavicle -1.03368e-014 3.27995e-015
rhumerus 35.481 16.9953 -86.7301
rradius 128.396
rwrist 25.4006
rhand 29.2648 -0.185367
rfingers 7.12502
rthumb 53.0448 -19.6493
lclavicle -1.03368e-014 3.27995e-015
lhumerus 42.2544 -26.41 82.7936
lradius 124.891
lwrist 19.6709
lhand -16.6635 26.3185
lfingers 7.12502
lthumb 9.55999 56.0816
rfemur -50.0342 1.82033 20.4362
rtibia 19.228
rfoot -7.05733 -8.32962
rtoes -12.8073
lfemur -52.2781 3.88796 -18.7012
ltibia 24.4936
lfoot -7.05216 3.15535
ltoes -14.9653
1768
root 0.647658 17.7289 0.0062965 -45.0216 87.9686 -78.4385
lowerback 34.8732 -1.56892 2.61309
upperback 23.2111 2.00443 1.78205
thorax 8.00945 2.15638 0.193453
lowerneck 28.4547 -2.39341 -6.67381
upperneck -3.58114 -4.13081 8.30505
head -5.15193 -2.46826 4.25623
rclavicle 3.97569e-015 2.83268e-014
rhumerus 35.4899 16.9966 -86.669
rradius 128.331
rwrist 25.3648
rhand 29.1876 -0.122003
rfingers 7.12502
rthumb 52.9751 -19.6301
lclavicle 3.97569e-015 2.83268e-014
lhumerus 42.2451 -26.4696 82.7766
lradius 124.905
lwrist 19.7778
lhand -16.7878 26.4169
lfingers 7.12502
lthumb 9.44011 56.1855
rfemur -50.0455 1.93245 20.2951
rtibia 19.2477
rfoot -7.20953 -8.36897
rtoes -12.3133
lfemur -52.2604 3.80342 -18.6809
ltibia 24.4955
lfoot -7.06864 3.33705
ltoes -15.2259
1769
root 0.641494 17.7293 0.0108009 -44.4238 88.0311 -77.8214
lowerback 34.7744 -1.54242 2.57417
upperback 23.2253 2.02249 1.80585
thorax 8.05827 2.15974 0.237554
lowerneck 28.566 -2.41653 -6.62611
upperneck -3.66557 -4.15243 8.25247
head -5.1942 -2.47623 4.23848
rclavicle 8.42847e-014 4.37326e-014
rhumerus 35.5128 16.971 -86.6493
rradius 128.268
rwrist 25.2826
rhand 29.1791 -0.160746
rfingers 7.12502
rthumb 52.9675 -19.6737
lclavicle 8.42847e-014 4.37326e-014
lhumerus 42.2122 -26.5261 82.8184
lradius 124.927
lwrist 19.8979
lhand -16.9052 26.4476
lfingers 7.12502
lthumb 9.32686 56.2213
rfemur -50.0477 1.94193 20.217
rtibia 19.2573
rfoot -7.20266 -8.37826
rtoes -12.4134
lfemur -52.2502 3.74033 -18.7105
ltibia 24.4889
lfoot -7.07271 3.4383
ltoes -15.4971
